# Blender v2.76 (sub 0) OBJ File: 'hammerstand-broken.blend'
# www.blender.org
mtllib hammerstand-broken.mtl
o hammerstand-broken_Cube.000
v 0.008356 0.046960 0.664511
v 0.008356 0.046960 0.335489
v 0.051644 0.046960 0.335489
v 0.051644 0.046960 0.664511
v -0.073651 0.825529 0.657433
v -0.035697 0.847478 0.335489
v 0.007590 0.847478 0.335489
v -0.030364 0.825529 0.657433
v 0.051644 0.475000 0.335489
v 0.000424 0.830110 0.500000
v 0.051644 0.475000 0.664511
v 0.051644 0.046960 0.500000
v 0.051644 0.475000 0.500000
v 0.008356 0.475000 0.664511
v -0.042863 0.830110 0.500000
v 0.008356 0.475000 0.335489
v 0.008356 0.046960 0.500000
v -0.029139 0.475000 0.500000
v 1.044472 0.900000 -0.044472
v 1.009117 0.986602 -0.009117
v 0.938406 0.986602 0.061594
v 0.903051 0.900000 0.096949
v 0.938406 0.813397 0.061594
v 1.009117 0.813397 -0.009117
v -0.044472 0.900000 -0.044472
v -0.009117 0.986602 -0.009117
v 0.061594 0.986602 0.061594
v 0.096949 0.900000 0.096949
v 0.061594 0.813397 0.061594
v -0.009117 0.813397 -0.009117
v -0.044472 0.900000 1.044472
v -0.009117 0.986602 1.009117
v 0.061594 0.986602 0.938406
v 0.096949 0.900000 0.903051
v 0.061594 0.813397 0.938406
v -0.009117 0.813397 1.009117
v 1.044472 0.900000 1.044472
v 1.009117 0.986602 1.009117
v 0.938406 0.986602 0.938406
v 0.903051 0.900000 0.903051
v 0.938406 0.813397 0.938406
v 1.009117 0.813397 1.009117
v 0.096949 0.855932 0.622359
v 0.061594 0.942535 0.611376
v -0.044472 0.855932 0.634732
v 0.061594 0.769330 0.639528
v -0.009117 0.769330 0.645715
v -0.009117 0.942535 0.617563
v 0.096949 0.879698 0.660147
v 0.061594 0.966301 0.640274
v -0.044472 0.879698 0.656437
v 0.061594 0.793096 0.678165
v -0.009117 0.793096 0.676310
v -0.009117 0.966301 0.638419
v 0.050000 0.000000 0.950000
v 0.050000 0.000000 0.050000
v 0.950000 0.000000 0.050000
v 0.950000 0.000000 0.950000
v 0.050000 0.900000 0.950000
v 0.050000 0.824198 0.050000
v 0.950000 0.900000 0.050000
v 0.950000 0.900000 0.950000
v 0.050000 0.450000 0.950000
v 0.050000 0.824198 0.500000
v 0.050000 0.374198 0.050000
v 0.050000 0.000000 0.500000
v 0.500000 0.900000 0.050000
v 0.950000 0.450000 0.050000
v 0.500000 0.000000 0.050000
v 0.950000 0.900000 0.500000
v 0.950000 0.450000 0.950000
v 0.950000 0.000000 0.500000
v 0.500000 0.900000 0.950000
v 0.500000 0.000000 0.950000
v 0.470686 0.830302 0.557646
v 0.500000 0.000000 0.500000
v 0.500000 0.450000 0.950000
v 0.950000 0.450000 0.500000
v 0.500000 0.450000 0.050000
v 0.015231 0.374198 0.500000
v 0.050000 0.675000 0.950000
v 0.050000 0.824198 0.275000
v 0.050000 0.225000 0.050000
v 0.050000 0.000000 0.725000
v 0.725000 0.900000 0.050000
v 0.950000 0.225000 0.050000
v 0.275000 0.000000 0.050000
v 0.950000 0.900000 0.725000
v 0.950000 0.225000 0.950000
v 0.950000 0.000000 0.275000
v 0.275000 0.900000 0.950000
v 0.725000 0.000000 0.950000
v 0.050000 0.225000 0.950000
v 0.050000 0.824198 0.725000
v 0.050000 0.599198 0.050000
v 0.050000 0.000000 0.275000
v 0.275000 0.824198 0.050000
v 0.950000 0.675000 0.050000
v 0.725000 0.000000 0.050000
v 0.950000 0.900000 0.275000
v 0.950000 0.675000 0.950000
v 0.950000 0.000000 0.725000
v 0.725000 0.900000 0.950000
v 0.275000 0.000000 0.950000
v 0.275000 0.782015 0.500000
v 0.725000 0.857817 0.500000
v 0.500000 0.837047 0.725000
v 0.470686 0.857817 0.332646
v 0.725000 0.000000 0.500000
v 0.275000 0.000000 0.500000
v 0.500000 0.000000 0.725000
v 0.500000 0.000000 0.275000
v 0.500000 0.225000 0.950000
v 0.500000 0.675000 0.950000
v 0.725000 0.450000 0.950000
v 0.275000 0.450000 0.950000
v 0.950000 0.225000 0.500000
v 0.950000 0.675000 0.500000
v 0.950000 0.450000 0.275000
v 0.950000 0.450000 0.725000
v 0.500000 0.225000 0.050000
v 0.500000 0.675000 0.050000
v 0.275000 0.450000 0.050000
v 0.725000 0.450000 0.050000
v 0.050000 0.149198 0.500000
v 0.010734 0.599198 0.500000
v 0.070652 0.374198 0.725000
v 0.015231 0.374198 0.275000
v 0.025827 0.599198 0.275000
v 0.054848 0.599198 0.725000
v 0.050000 0.149198 0.725000
v 0.725000 0.675000 0.050000
v 0.275000 0.675000 0.050000
v 0.275000 0.225000 0.050000
v 0.950000 0.675000 0.725000
v 0.950000 0.675000 0.275000
v 0.950000 0.225000 0.275000
v 0.275000 0.675000 0.950000
v 0.725000 0.675000 0.950000
v 0.725000 0.225000 0.950000
v 0.275000 0.000000 0.275000
v 0.275000 0.000000 0.725000
v 0.725000 0.000000 0.725000
v 0.725000 0.857817 0.275000
v 0.725000 0.857817 0.725000
v 0.275000 0.792234 0.725000
v 0.275000 0.810896 0.275000
v 0.725000 0.000000 0.275000
v 0.275000 0.225000 0.950000
v 0.950000 0.225000 0.725000
v 0.725000 0.225000 0.050000
v 0.050000 0.149198 0.275000
v 0.826332 -0.001201 1.051362
v 0.173668 -0.001201 1.051362
v 0.173668 -0.001201 0.948638
v 0.826332 -0.001201 0.948638
v 0.826332 0.089201 1.051362
v 0.173668 0.089201 1.051362
v 0.173668 0.089201 0.948638
v 0.826332 0.089201 0.948638
v 0.173668 -0.001201 -0.051362
v 0.826332 -0.001201 -0.051362
v 0.826332 -0.001201 0.051362
v 0.173668 -0.001201 0.051362
v 0.173668 0.089201 -0.051362
v 0.826332 0.089201 -0.051362
v 0.826332 0.089201 0.051362
v 0.173668 0.089201 0.051362
v -0.051362 -0.001201 0.826332
v -0.051362 -0.001201 0.173668
v 0.051362 -0.001201 0.173668
v 0.051362 -0.001201 0.826332
v -0.051362 0.089201 0.826332
v -0.051362 0.089201 0.173668
v 0.051362 0.089201 0.173668
v 0.051362 0.089201 0.826332
v 1.051362 -0.001201 0.173668
v 1.051362 -0.001201 0.826332
v 0.948638 -0.001201 0.826332
v 0.948638 -0.001201 0.173668
v 1.051362 0.089201 0.173668
v 1.051362 0.089201 0.826332
v 0.948638 0.089201 0.826332
v 0.948638 0.089201 0.173668
v 0.664511 0.046960 0.991644
v 0.335489 0.046960 0.991644
v 0.335489 0.046960 0.948356
v 0.664511 0.046960 0.948356
v 0.664511 0.903040 0.991644
v 0.335489 0.903040 0.991644
v 0.335489 0.903040 0.948356
v 0.664511 0.903040 0.948356
v 0.664511 0.046960 0.051644
v 0.335489 0.046960 0.051644
v 0.335489 0.046960 0.008356
v 0.664511 0.046960 0.008356
v 0.664511 0.903040 0.051644
v 0.335489 0.903040 0.051644
v 0.335489 0.903040 0.008356
v 0.664511 0.903040 0.008356
v 0.948356 0.046960 0.664511
v 0.948356 0.046960 0.335489
v 0.991644 0.046960 0.335489
v 0.991644 0.046960 0.664511
v 0.948356 0.903040 0.664511
v 0.948356 0.903040 0.335489
v 0.991644 0.903040 0.335489
v 0.991644 0.903040 0.664511
vt 0.781250 0.093750
vt 0.781250 0.156250
vt 0.625000 0.156250
vt 0.625000 0.093750
vt 0.625000 0.187500
vt 0.781250 0.187500
vt 0.781250 0.031250
vt 0.625000 0.031250
vt 0.906250 0.031250
vt 0.906250 0.093750
vt 0.906250 0.156250
vt 0.906250 0.187500
vt 0.906250 0.218750
vt 0.937500 0.093750
vt 0.937500 0.156250
vt 0.937500 0.031250
vt 0.937500 0.875000
vt 0.562500 0.875000
vt 0.562500 0.843750
vt 0.937500 0.843750
vt 0.593750 0.812500
vt 0.906250 0.812500
vt 0.593750 0.781250
vt 0.906250 0.781250
vt 0.906250 0.968750
vt 0.593750 0.968750
vt 0.593750 0.937500
vt 0.906250 0.937500
vt 0.562500 0.906250
vt 0.937500 0.906250
vt 0.812500 0.687500
vt 0.937500 0.687500
vt 0.937500 0.718750
vt 0.781250 0.718750
vt 0.906250 0.750000
vt 0.781250 0.750000
vt 0.875000 0.781250
vt 0.812500 0.781250
vt 0.812500 0.593750
vt 0.906250 0.593750
vt 0.906250 0.625000
vt 0.812500 0.625000
vt 0.937500 0.656250
vt 0.812500 0.656250
vt 0.687500 0.750000
vt 0.687500 0.718750
vt 0.687500 0.687500
vt 0.718750 0.656250
vt 0.718750 0.625000
vt 0.687500 0.593750
vt 0.875000 0.593750
vt 0.687500 0.781250
vt 0.625000 0.750000
vt 0.656250 0.750000
vt 0.656250 0.781250
vt 0.625000 0.781250
vt 0.656250 0.718750
vt 0.625000 0.718750
vt 0.375000 0.406250
vt 0.500000 0.375000
vt 0.500000 0.468750
vt 0.375000 0.468750
vt 0.125000 0.375000
vt 0.125000 0.500000
vt 0.000000 0.500000
vt 0.000000 0.375000
vt 0.125000 0.625000
vt 0.000000 0.625000
vt 0.375000 0.625000
vt 0.375000 0.500000
vt 0.500000 0.500000
vt 0.500000 0.625000
vt 0.125000 0.343750
vt 0.125000 0.468750
vt -0.000000 0.468750
vt 0.000000 0.343750
vt 0.125000 0.125000
vt 0.125000 0.250000
vt 0.000000 0.250000
vt 0.000000 0.125000
vt 0.375000 0.125000
vt 0.375000 0.250000
vt 0.218750 0.218750
vt 0.250000 0.125000
vt 0.375000 0.343750
vt 0.250000 0.468750
vt 0.218750 0.343750
vt 0.375000 0.875000
vt 0.375000 0.750000
vt 0.500000 0.750000
vt 0.500000 0.875000
vt 0.125000 0.875000
vt 0.125000 0.750000
vt 0.250000 0.750000
vt 0.250000 0.875000
vt 0.250000 0.500000
vt 0.250000 0.625000
vt 0.000000 0.875000
vt 0.000000 0.750000
vt 0.250000 0.250000
vt 0.375000 0.375000
vt 0.250000 0.375000
vt 0.125000 0.406250
vt 0.250000 0.406250
vt 0.125000 0.156250
vt 0.250000 0.156250
vt 0.250000 0.281250
vt 0.125000 0.281250
vt 0.375000 0.156250
vt 0.500000 0.156250
vt 0.500000 0.281250
vt 0.375000 0.281250
vt 0.250000 0.031250
vt 0.375000 0.031250
vt 0.500000 0.031250
vt 0.000000 0.000000
vt 0.125000 0.031250
vt 0.500000 0.250000
vt 0.343750 0.000000
vt 0.218750 0.000000
vt 0.437500 0.000000
vt 0.437500 0.125000
vt 0.125000 0.000000
vt 0.250000 1.000000
vt 0.125000 1.000000
vt 0.000000 1.000000
vt 0.500000 1.000000
vt 0.375000 1.000000
vt 0.500000 0.343750
vt 0.375000 -0.000000
vt 0.250000 -0.000000
vt 0.500000 -0.000000
vt 0.500000 0.125000
vt 0.843750 0.531250
vt 0.843750 0.281250
vt 0.875000 0.281250
vt 0.875000 0.531250
vt 0.875000 0.250000
vt 0.906250 0.250000
vt 0.906250 0.281250
vt 0.906250 0.562500
vt 0.875000 0.562500
vt 0.906250 0.531250
vt 0.781250 0.531250
vt 0.781250 0.281250
vt 0.750000 0.562500
vt 0.656250 0.562500
vt 0.656250 0.250000
vt 0.750000 0.250000
vt 0.625000 0.562500
vt 0.625000 0.250000
vt 0.781250 0.562500
vt 0.781250 0.250000
vn -0.992600 -0.043500 -0.113100
vn 0.000000 0.000000 -1.000000
vn 1.000000 0.000000 0.000000
vn 0.000000 0.000000 1.000000
vn 0.991100 0.129800 0.028400
vn 0.977900 0.185600 0.096200
vn -0.992600 -0.043500 0.113100
vn -0.990800 -0.134200 0.018700
vn -0.987300 -0.078400 -0.138200
vn 0.000000 0.020200 0.999800
vn 0.000000 0.999600 0.029100
vn 0.000000 0.994500 0.105000
vn 0.000000 0.378000 -0.925800
vn 0.000000 1.000000 -0.000000
vn -0.000000 0.378000 0.925800
vn -0.000000 -0.378000 0.925800
vn 0.000000 -1.000000 0.000000
vn 0.000000 -0.378000 -0.925800
vn -0.927800 0.372600 -0.019900
vn -0.029500 0.997700 -0.060600
vn 0.924500 0.380000 -0.028500
vn 0.928600 -0.369900 0.029900
vn 0.033200 -0.997100 0.068300
vn -0.924900 -0.379500 0.021400
vn 0.925800 0.378000 0.000000
vn -0.925800 0.378000 0.000000
vn -0.925800 -0.378000 0.000000
vn 0.925800 -0.378000 0.000000
vn 0.032500 -0.996900 -0.071300
vn -0.926500 0.375600 0.025300
vn -0.923100 -0.383600 -0.025300
vn -0.034100 0.996600 0.074700
vn 0.922400 0.385000 0.031600
vn 0.926500 -0.375100 -0.030000
vn 0.025600 -0.213600 -0.976600
vn 0.086000 0.159800 0.983400
vn -1.000000 0.000000 0.000000
vn 0.029500 0.999100 0.029500
vn 0.162500 0.986400 -0.022400
vn -0.101400 0.994800 -0.009500
vn 0.019800 0.986100 0.165000
vn -0.975500 -0.044000 0.215800
vn -0.991300 0.023300 -0.129800
vn -0.999300 0.013500 -0.033500
vn -0.989700 0.139500 -0.033200
vn -0.997100 0.053600 -0.053600
vn -0.998400 -0.035100 -0.044800
vn -0.999900 -0.010800 -0.007100
vn -0.992400 0.075900 0.097300
vn -0.997100 0.045800 -0.061200
vn -0.992000 -0.031100 0.122200
vn -0.040100 0.997300 0.061000
vn -0.184300 0.982900 0.000000
vn -0.092900 0.991300 0.092900
vn -0.044900 0.972800 -0.227300
vn -0.092900 0.991300 -0.092900
vn 0.065600 0.923900 -0.376900
vn -0.092700 0.931000 -0.353200
vn -0.212600 0.976800 -0.026400
vn 0.122100 0.990500 0.063600
vn -0.267900 0.956000 0.119800
vn -0.290000 0.953000 0.087400
vn -0.988300 -0.152700 0.000000
vn -0.991500 -0.092100 -0.092100
usemtl hammerstand-broken
s off
f 18/1/1 16/2/1 2/3/1 17/4/1
f 2/5/2 16/6/2 9/2/2 3/3/2
f 13/1/3 11/2/3 4/3/3 12/4/3
f 11/2/4 14/6/4 1/5/4 4/3/4
f 9/7/3 13/1/3 12/4/3 3/8/3
f 7/9/5 10/10/5 13/1/5 9/7/5
f 10/10/6 8/11/6 11/2/6 13/1/6
f 14/7/7 18/1/7 17/4/7 1/8/7
f 5/9/8 15/10/8 18/1/8 14/7/8
f 15/10/9 6/11/9 16/2/9 18/1/9
f 14/6/10 11/2/10 8/12/10 5/13/10
f 16/6/2 6/12/2 7/12/2 9/2/2
f 10/10/11 15/14/11 5/15/11 8/11/11
f 15/14/12 10/10/12 7/9/12 6/16/12
f 19/17/13 25/18/13 26/19/13 20/20/13
f 20/20/14 26/19/14 27/21/14 21/22/14
f 21/22/15 27/21/15 28/23/15 22/24/15
f 22/25/16 28/26/16 29/27/16 23/28/16
f 23/28/17 29/27/17 30/29/17 24/30/17
f 19/17/18 24/30/18 30/29/18 25/18/18
f 51/31/19 31/32/19 32/33/19 54/34/19
f 54/34/20 32/33/20 33/35/20 50/36/20
f 50/36/21 33/35/21 34/37/21 49/38/21
f 49/39/22 34/40/22 35/41/22 52/42/22
f 52/42/23 35/41/23 36/43/23 53/44/23
f 53/44/24 36/43/24 31/32/24 51/31/24
f 31/18/15 37/17/15 38/30/15 32/29/15
f 32/29/14 38/30/14 39/28/14 33/27/14
f 33/27/13 39/28/13 40/25/13 34/26/13
f 34/23/18 40/24/18 41/22/18 35/21/18
f 35/21/17 41/22/17 42/20/17 36/19/17
f 36/19/16 42/20/16 37/17/16 31/18/16
f 37/18/25 19/17/25 20/30/25 38/29/25
f 38/29/14 20/30/14 21/28/14 39/27/14
f 39/27/26 21/28/26 22/25/26 40/26/26
f 40/23/27 22/24/27 23/22/27 41/21/27
f 41/21/17 23/22/17 24/20/17 42/19/17
f 42/19/28 24/20/28 19/17/28 37/18/28
f 29/35/29 46/45/29 47/46/29 30/33/29
f 25/32/30 45/47/30 48/48/30 26/43/30
f 30/33/31 47/46/31 45/47/31 25/32/31
f 26/43/32 48/48/32 44/49/32 27/41/32
f 27/41/33 44/49/33 43/50/33 28/51/33
f 28/24/34 43/52/34 46/45/34 29/35/34
f 49/53/35 51/54/35 54/55/35 50/56/35
f 45/53/36 43/54/36 44/55/36 48/56/36
f 46/57/36 43/54/36 45/53/36 47/58/36
f 51/54/35 49/53/35 52/58/35 53/57/35
f 152/59/37 83/60/37 56/61/37 96/62/37
f 151/63/2 86/64/2 57/65/2 99/66/2
f 150/67/3 89/68/3 58/65/3 102/64/3
f 149/67/4 93/68/4 55/65/4 104/64/4
f 148/69/17 99/70/17 57/71/17 90/72/17
f 147/73/38 97/74/38 60/75/38 82/76/38
f 146/77/39 105/78/39 64/79/39 94/80/39
f 145/81/40 106/82/40 75/83/40 107/84/40
f 144/85/41 85/62/41 67/86/41 108/87/41
f 143/88/17 109/89/17 72/90/17 102/91/17
f 142/92/17 110/93/17 76/94/17 111/95/17
f 141/67/17 87/64/17 69/96/17 112/97/17
f 140/69/4 113/97/4 74/96/4 92/70/4
f 139/88/4 114/95/4 77/94/4 115/89/4
f 138/92/4 81/98/4 63/99/4 116/93/4
f 137/69/3 117/97/3 72/96/3 90/70/3
f 136/88/3 118/95/3 78/94/3 119/89/3
f 135/92/3 101/98/3 71/99/3 120/93/3
f 134/77/2 121/78/2 69/79/2 87/80/2
f 133/81/2 122/82/2 79/100/2 123/84/2
f 132/101/2 98/70/2 68/96/2 124/102/2
f 131/103/37 125/104/37 66/86/37 84/64/37
f 130/105/42 126/106/42 80/107/42 127/108/42
f 129/109/43 95/110/43 65/111/43 128/112/43
f 126/106/44 129/109/44 128/112/44 80/107/44
f 64/113/45 82/114/45 129/109/45 126/106/45
f 82/114/46 60/115/46 95/110/46 129/109/46
f 81/80/47 130/105/47 127/108/47 63/79/47
f 59/116/48 94/117/48 130/105/48 81/80/48
f 94/117/49 64/113/49 126/106/49 130/105/49
f 93/66/37 131/103/37 84/64/37 55/65/37
f 63/79/50 127/108/50 131/103/50 93/66/50
f 127/108/51 80/107/51 125/104/51 131/103/51
f 122/82/2 132/101/2 124/102/2 79/100/2
f 67/118/2 85/60/2 132/101/2 122/82/2
f 85/60/2 61/71/2 98/70/2 132/101/2
f 95/119/2 133/81/2 123/84/2 65/120/2
f 60/121/2 97/122/2 133/81/2 95/119/2
f 97/122/2 67/118/2 122/82/2 133/81/2
f 83/123/2 134/77/2 87/80/2 56/116/2
f 65/120/2 123/84/2 134/77/2 83/123/2
f 123/84/2 79/100/2 121/78/2 134/77/2
f 118/95/3 135/92/3 120/93/3 78/94/3
f 70/124/3 88/125/3 135/92/3 118/95/3
f 88/125/3 62/126/3 101/98/3 135/92/3
f 98/91/3 136/88/3 119/89/3 68/90/3
f 61/127/3 100/128/3 136/88/3 98/91/3
f 100/128/3 70/124/3 118/95/3 136/88/3
f 86/72/3 137/69/3 90/70/3 57/71/3
f 68/90/3 119/89/3 137/69/3 86/72/3
f 119/89/3 78/94/3 117/97/3 137/69/3
f 114/95/4 138/92/4 116/93/4 77/94/4
f 73/124/4 91/125/4 138/92/4 114/95/4
f 91/125/4 59/126/4 81/98/4 138/92/4
f 101/91/4 139/88/4 115/89/4 71/90/4
f 62/127/4 103/128/4 139/88/4 101/91/4
f 103/128/4 73/124/4 114/95/4 139/88/4
f 89/72/4 140/69/4 92/70/4 58/71/4
f 71/90/4 115/89/4 140/69/4 89/72/4
f 115/89/4 77/94/4 113/97/4 140/69/4
f 110/93/17 141/67/17 112/97/17 76/94/17
f 66/99/17 96/68/17 141/67/17 110/93/17
f 96/68/17 56/65/17 87/64/17 141/67/17
f 104/125/17 142/92/17 111/95/17 74/124/17
f 55/126/17 84/98/17 142/92/17 104/125/17
f 84/98/17 66/99/17 110/93/17 142/92/17
f 92/128/17 143/88/17 102/91/17 58/127/17
f 74/124/17 111/95/17 143/88/17 92/128/17
f 111/95/17 76/94/17 109/89/17 143/88/17
f 106/82/52 144/85/52 108/87/52 75/83/52
f 70/118/53 100/129/53 144/85/53 106/82/53
f 100/129/54 61/61/54 85/62/54 144/85/54
f 103/130/55 145/81/55 107/84/55 73/131/55
f 62/132/56 88/133/56 145/81/56 103/130/56
f 88/133/53 70/118/53 106/82/53 145/81/53
f 91/123/57 146/77/57 94/80/57 59/116/57
f 73/131/58 107/84/58 146/77/58 91/123/58
f 107/84/59 75/83/59 105/78/59 146/77/59
f 105/78/60 147/73/60 82/76/60 64/79/60
f 75/83/61 108/87/61 147/73/61 105/78/61
f 108/87/62 67/86/62 97/74/62 147/73/62
f 109/89/17 148/69/17 90/72/17 72/90/17
f 76/94/17 112/97/17 148/69/17 109/89/17
f 112/97/17 69/96/17 99/70/17 148/69/17
f 113/97/4 149/67/4 104/64/4 74/96/4
f 77/94/4 116/93/4 149/67/4 113/97/4
f 116/93/4 63/99/4 93/68/4 149/67/4
f 117/97/3 150/67/3 102/64/3 72/96/3
f 78/94/3 120/93/3 150/67/3 117/97/3
f 120/93/3 71/99/3 89/68/3 150/67/3
f 121/78/2 151/63/2 99/66/2 69/79/2
f 79/100/2 124/102/2 151/63/2 121/78/2
f 124/102/2 68/96/2 86/64/2 151/63/2
f 125/104/37 152/59/37 96/62/37 66/86/37
f 80/107/63 128/112/63 152/59/63 125/104/63
f 128/112/64 65/111/64 83/60/64 152/59/64
f 157/134/4 158/135/4 154/136/4 153/137/4
f 158/138/37 159/139/37 155/140/37 154/136/37
f 160/141/3 157/142/3 153/137/3 156/143/3
f 153/137/17 154/136/17 155/140/17 156/143/17
f 160/144/14 159/145/14 158/135/14 157/134/14
f 165/134/2 166/135/2 162/136/2 161/137/2
f 166/138/3 167/139/3 163/140/3 162/136/3
f 168/141/37 165/142/37 161/137/37 164/143/37
f 161/137/17 162/136/17 163/140/17 164/143/17
f 168/144/14 167/145/14 166/135/14 165/134/14
f 173/134/37 174/135/37 170/136/37 169/137/37
f 174/138/2 175/139/2 171/140/2 170/136/2
f 176/141/4 173/142/4 169/137/4 172/143/4
f 169/137/17 170/136/17 171/140/17 172/143/17
f 176/144/14 175/145/14 174/135/14 173/134/14
f 181/134/3 182/135/3 178/136/3 177/137/3
f 182/138/4 183/139/4 179/140/4 178/136/4
f 184/141/2 181/142/2 177/137/2 180/143/2
f 177/137/17 178/136/17 179/140/17 180/143/17
f 184/144/14 183/145/14 182/135/14 181/134/14
f 189/146/4 190/147/4 186/148/4 185/149/4
f 190/147/37 191/150/37 187/151/37 186/148/37
f 192/152/3 189/146/3 185/149/3 188/153/3
f 198/152/37 199/146/37 195/149/37 194/153/37
f 199/146/2 200/147/2 196/148/2 195/149/2
f 200/147/3 197/150/3 193/151/3 196/148/3
f 206/152/2 207/146/2 203/149/2 202/153/2
f 207/146/3 208/147/3 204/148/3 203/149/3
f 208/147/4 205/150/4 201/151/4 204/148/4
