# Blender v2.76 (sub 0) OBJ File: 'injector - Copie (2).blend'
# www.blender.org
mtllib injector.mtl
o injector_Cube.001
v 0.280000 0.280000 0.928937
v 0.280000 0.720000 0.928937
v 0.720000 0.280000 0.928937
v 0.720000 0.720000 0.928937
v 0.280000 0.280000 0.988937
v 0.280000 0.720000 0.988937
v 0.720000 0.280000 0.988937
v 0.720000 0.720000 0.988937
v 0.100000 0.100000 0.020000
v 0.100000 0.900000 0.020000
v 0.900000 0.100000 0.020000
v 0.900000 0.900000 0.020000
v 0.100000 0.100000 0.080000
v 0.100000 0.900000 0.080000
v 0.900000 0.100000 0.080000
v 0.900000 0.900000 0.080000
v 1.000000 0.000000 -0.000000
v 1.000000 0.000000 1.000000
v 0.000000 0.000000 1.000000
v -0.000000 1.000000 0.000000
v 1.000000 1.000000 1.000000
v 0.000000 1.000000 1.000000
v 0.700000 0.700000 1.000000
v 0.700000 0.300000 1.000000
v 0.300000 0.300000 1.000000
v 0.300000 0.700000 1.000000
v 0.700000 0.700000 0.600000
v 0.700000 0.300000 0.600000
v 0.300000 0.300000 0.600000
v 0.300000 0.700000 0.600000
v -0.000000 0.000000 0.000000
v 1.000000 1.000000 -0.000000
v 0.900000 0.900000 -0.000000
v 0.900000 0.100000 -0.000000
v 0.100000 0.100000 0.000000
v 0.100000 0.900000 0.000000
v 0.900000 0.900000 0.550000
v 0.900000 0.100000 0.550000
v 0.100000 0.100000 0.550000
v 0.100000 0.900000 0.550000
vt 0.687500 0.312500
vt 0.843750 0.312500
vt 0.843750 0.468750
vt 0.687500 0.468750
vt 0.687500 0.156250
vt 0.843750 0.156250
vt 0.687500 -0.000000
vt 1.000000 -0.000000
vt 1.000000 0.312500
vt 0.687500 0.625000
vt 1.000000 0.625000
vt 0.250000 1.000000
vt -0.000000 1.000000
vt -0.000000 0.781250
vt 0.250000 0.781250
vt 0.500000 0.375000
vt 0.500000 0.156250
vt 0.625000 0.000000
vt 0.625000 0.531250
vt -0.000000 0.500000
vt -0.000000 0.000000
vt 0.500000 0.000000
vt 0.500000 0.500000
vt 0.687500 0.031250
vt 0.687500 0.500000
vt 0.500000 0.656250
vt 0.968750 0.656250
vt 0.968750 1.000000
vt 0.500000 1.000000
vn 0.000000 0.000000 1.000000
vn -0.000000 0.000000 -1.000000
vn 1.000000 0.000000 -0.000000
vn 0.000000 1.000000 0.000000
vn -1.000000 0.000000 0.000000
vn 0.000000 -1.000000 0.000000
usemtl injectorm
s off
f 1/1/1 3/2/1 4/3/1 2/4/1
f 5/5/1 7/6/1 8/2/1 6/1/1
f 9/1/2 10/7/2 12/8/2 11/9/2
f 13/10/2 14/1/2 16/9/2 15/11/2
f 26/12/3 25/13/3 29/14/3 30/15/3
f 25/13/4 24/14/4 28/15/4 29/12/4
f 24/15/5 23/12/5 27/13/5 28/14/5
f 26/13/6 30/14/6 27/15/6 23/12/6
f 30/13/1 29/14/1 28/15/1 27/12/1
f 23/16/1 24/17/1 18/18/1 21/19/1
f 19/18/1 18/19/1 24/16/1 25/17/1
f 25/16/1 26/17/1 22/18/1 19/19/1
f 22/19/1 26/16/1 23/17/1 21/18/1
f 31/20/6 17/21/6 18/22/6 19/23/6
f 20/18/2 36/24/2 35/25/2 31/19/2
f 20/19/2 32/18/2 33/24/2 36/25/2
f 17/18/2 34/24/2 33/25/2 32/19/2
f 31/18/2 35/24/2 34/25/2 17/19/2
f 35/26/3 36/27/3 40/28/3 39/29/3
f 34/26/4 35/27/4 39/28/4 38/29/4
f 33/28/5 34/29/5 38/26/5 37/27/5
f 36/26/6 33/27/6 37/28/6 40/29/6
f 40/13/2 37/20/2 38/23/2 39/29/2
f 21/23/4 32/20/4 20/21/4 22/22/4
