# Blender v2.76 (sub 0) OBJ File: 'ltrstand.blend'
# www.blender.org
mtllib lightningrod-stand.mtl
o lightningrod-stand_Cube
v 1.000000 1.000541 0.000000
v 1.000000 1.000541 1.000000
v -0.000000 1.000541 1.000000
v 0.000000 1.000541 0.000000
v 0.312500 0.893459 0.312500
v 0.687500 0.893459 0.312500
v 0.687500 0.893459 0.687500
v 0.312500 0.893459 0.687500
v 0.312500 0.279294 0.312500
v 0.687500 0.279294 0.312500
v 0.687500 0.279294 0.687500
v 0.312500 0.279294 0.687500
vt 0.375000 1.000000
vt 0.375000 -0.000000
vt 1.000000 -0.000000
vt 1.000000 1.000000
vt 0.812500 0.625000
vt 0.562500 0.625000
vt 0.562500 0.375000
vt 0.812500 0.375000
vt 0.000000 0.000000
vt 0.312500 0.312500
vt 0.312500 0.687500
vt 0.000000 1.000000
vn -1.000000 0.000000 -0.000000
vn 0.000000 1.000000 -0.000000
vn -0.000000 0.000000 1.000000
vn 0.000000 0.000000 -1.000000
vn 1.000000 0.000000 0.000000
vn 0.324200 0.946000 0.000000
vn 0.000000 0.946000 -0.324200
vn -0.324200 0.946000 -0.000000
vn -0.000000 0.946000 0.324200
usemtl lightningrod-standm
s off
f 6/1/1 10/2/1 11/3/1 7/4/1
f 10/5/2 9/6/2 12/7/2 11/8/2
f 6/4/3 5/1/3 9/2/3 10/3/3
f 7/3/4 11/4/4 12/1/4 8/2/4
f 5/4/5 8/1/5 12/2/5 9/3/5
f 3/9/6 8/10/6 5/11/6 4/12/6
f 2/9/7 7/10/7 8/11/7 3/12/7
f 2/12/8 1/9/8 6/10/8 7/11/8
f 1/12/9 4/9/9 5/10/9 6/11/9
