# Blender v2.76 (sub 0) OBJ File: 'mrfusion - Copie (2).blend'
# www.blender.org
mtllib mrfusion.mtl
o mrfusion_Cylinder.001
v 0.599244 0.665580 0.664979
v 0.599244 0.665580 0.334688
v 0.698186 0.738971 0.387661
v 0.698186 0.738971 0.612006
v 0.728242 0.775666 0.499833
v 0.599244 0.445580 0.664979
v 0.599244 0.445580 0.334688
v 0.698186 0.443971 0.387661
v 0.698186 0.443971 0.612006
v 0.728242 0.445666 0.499833
v 0.599244 0.445580 0.502785
v 0.599244 0.665580 0.503498
v 0.809422 0.219487 0.559833
v 0.809422 0.339487 0.559833
v 0.809422 0.219487 0.439833
v 0.809422 0.339487 0.439833
v 0.929422 0.219487 0.559833
v 0.929422 0.339487 0.559833
v 0.929422 0.219487 0.439833
v 0.929422 0.339487 0.439833
v 0.809422 0.319487 0.559833
v 0.809422 0.319487 0.439833
v 0.909422 0.319487 0.559833
v 0.909422 0.319487 0.439833
v 0.909422 0.244487 0.559833
v 0.909422 0.244487 0.439833
v 0.809422 0.244487 0.559833
v 0.809422 0.244487 0.439833
v 0.489422 0.000487 0.074583
v 0.489422 0.290487 0.098208
v 0.702047 0.000487 0.131556
v 0.690235 0.290487 0.152016
v 0.857700 0.000487 0.287208
v 0.837240 0.290487 0.299021
v 0.914672 0.000487 0.499833
v 0.891047 0.290487 0.499833
v 0.857700 0.000487 0.712458
v 0.837240 0.290487 0.700646
v 0.702047 0.000487 0.868111
v 0.690235 0.290487 0.847651
v 0.489422 0.000487 0.925083
v 0.489422 0.290487 0.901458
v 0.276798 0.000487 0.868111
v 0.288610 0.290487 0.847651
v 0.121145 0.000487 0.712459
v 0.141605 0.290487 0.700646
v 0.064172 0.000487 0.499834
v 0.087797 0.290487 0.499834
v 0.121145 0.000487 0.287209
v 0.141605 0.290487 0.299021
v 0.276797 0.000487 0.131556
v 0.288610 0.290487 0.152016
v 0.109422 0.340487 0.349833
v 0.109422 0.340487 0.649834
v 0.144778 0.325842 0.349833
v 0.144778 0.325842 0.649834
v 0.159422 0.290487 0.349833
v 0.159422 0.290487 0.649834
v 0.144778 0.255132 0.349833
v 0.144778 0.255132 0.649834
v 0.109422 0.240487 0.349833
v 0.109422 0.240487 0.649834
v 0.074067 0.255132 0.349833
v 0.074067 0.255132 0.649834
v 0.059422 0.290487 0.349833
v 0.059422 0.290487 0.649834
v 0.074067 0.325842 0.349833
v 0.074067 0.325842 0.649834
v 0.489422 0.290487 0.098208
v 0.690235 0.290487 0.152016
v 0.837240 0.290487 0.299021
v 0.891047 0.290487 0.499833
v 0.837240 0.290487 0.700646
v 0.690235 0.290487 0.847651
v 0.489422 0.290487 0.901458
v 0.288610 0.290487 0.847651
v 0.141605 0.290487 0.700646
v 0.087797 0.290487 0.499834
v 0.141605 0.290487 0.299021
v 0.288610 0.290487 0.152016
v 0.489422 0.390487 0.291966
v 0.593356 0.390487 0.319815
v 0.701208 0.390487 0.377559
v 0.733972 0.390487 0.499833
v 0.701208 0.390487 0.622108
v 0.593356 0.390487 0.679852
v 0.489422 0.390487 0.707700
v 0.385489 0.390487 0.679852
v 0.277636 0.390487 0.622108
v 0.244873 0.390487 0.499834
v 0.277636 0.390487 0.377559
v 0.385489 0.390487 0.319815
v 0.489422 0.950487 0.291966
v 0.593356 0.950487 0.319815
v 0.701208 0.950487 0.377559
v 0.733972 0.950487 0.499833
v 0.701208 0.950487 0.622108
v 0.593356 0.950487 0.679852
v 0.489422 0.950487 0.707700
v 0.385489 0.950487 0.679852
v 0.277636 0.950487 0.622108
v 0.244873 0.950487 0.499834
v 0.277636 0.950487 0.377559
v 0.385489 0.950487 0.319815
v 0.489422 0.970487 0.323147
v 0.577766 0.970487 0.346818
v 0.669441 0.970487 0.395900
v 0.697289 0.970487 0.499833
v 0.669441 0.970487 0.603767
v 0.577766 0.970487 0.652849
v 0.489422 0.970487 0.676520
v 0.401079 0.970487 0.652849
v 0.309404 0.970487 0.603767
v 0.281555 0.970487 0.499834
v 0.309404 0.970487 0.395900
v 0.401079 0.970487 0.346818
v 0.593356 0.650487 0.679852
v 0.701208 0.730487 0.622108
v 0.593356 0.420487 0.319815
v 0.701208 0.420487 0.377559
v 0.593356 0.420487 0.679852
v 0.489422 0.650487 0.291966
v 0.489422 0.420487 0.291966
v 0.489422 0.650487 0.707700
v 0.489422 0.420487 0.707700
v 0.489422 0.535487 0.291966
v 0.541389 0.535487 0.305891
v 0.489422 0.535487 0.707700
v 0.541389 0.535487 0.693776
v 0.277636 0.426586 0.622108
v 0.385489 0.426812 0.679852
v 0.385489 0.427521 0.319815
v 0.244873 0.422431 0.499834
v 0.277636 0.423035 0.377559
v 0.385489 0.533838 0.319815
v 0.385489 0.530000 0.679852
v 0.277636 0.534380 0.622108
v 0.244873 0.523309 0.499834
v 0.277636 0.534203 0.377559
v 0.244873 0.672894 0.499834
v 0.385489 0.670180 0.679852
v 0.277636 0.685103 0.622108
v 0.277636 0.671070 0.377559
v 0.385489 0.677104 0.319815
v 0.593356 0.650487 0.319815
v 0.701208 0.730487 0.377559
v 0.733972 0.770487 0.499833
v 0.733972 0.420487 0.499833
v 0.701208 0.420487 0.622108
v 0.558552 0.420487 0.505557
v 0.506586 0.535487 0.507777
v 0.666405 0.730487 0.499551
v 0.558552 0.650487 0.504971
v 0.666405 0.420487 0.500341
vt 0.473030 0.691008
vt 0.526288 0.691786
vt 0.526288 0.843128
vt 0.473030 0.826299
vt 0.579547 0.691008
vt 0.579547 0.826299
vt 0.631017 0.691746
vt 0.631017 0.792641
vt 0.421560 0.691746
vt 0.421560 0.792641
vt 0.498651 0.590851
vt 0.498978 0.691746
vt 0.421560 0.590851
vt 0.573035 0.590851
vt 0.573035 0.691746
vt 0.399302 0.916377
vt 0.477077 0.918055
vt 0.477270 0.992112
vt 0.420710 0.967966
vt 0.420713 0.864790
vt 0.477270 0.840637
vt 0.536237 0.916702
vt 0.522452 0.968151
vt 0.477067 0.992439
vt 0.522452 0.865252
vt 0.477067 0.840964
vt 0.176722 0.818131
vt 0.176722 0.873165
vt 0.121688 0.873165
vt 0.121688 0.818131
vt 0.121367 0.873401
vt 0.121367 0.818367
vt 0.176401 0.818367
vt 0.176401 0.873401
vt 0.175137 0.818131
vt 0.175137 0.873165
vt 0.120103 0.873165
vt 0.120103 0.818131
vt 0.138042 0.873165
vt 0.138042 0.818131
vt 0.147214 0.818131
vt 0.147214 0.873165
vt 0.127592 0.873401
vt 0.127592 0.818367
vt 0.173453 0.818367
vt 0.173453 0.873401
vt 0.176766 0.858831
vt 0.121733 0.858831
vt 0.121733 0.824435
vt 0.176766 0.824435
vt 0.176961 0.869253
vt 0.121927 0.869253
vt 0.121927 0.823392
vt 0.176961 0.823392
vt 0.149547 0.820738
vt 0.149547 0.875772
vt 0.138082 0.875772
vt 0.138082 0.820738
vt 0.175971 0.846168
vt 0.166799 0.855340
vt 0.120937 0.855340
vt 0.120937 0.846168
vt 0.120937 0.835900
vt 0.120937 0.824435
vt 0.166799 0.824435
vt 0.175971 0.835900
vt 0.121305 0.852541
vt 0.132770 0.843369
vt 0.167166 0.843369
vt 0.176338 0.852541
vt 0.175971 0.855340
vt 0.166799 0.866805
vt 0.120937 0.866805
vt 0.176338 0.834197
vt 0.121305 0.834197
vt 0.120937 0.836995
vt 0.166799 0.836995
vt 0.583736 0.022982
vt 0.578969 0.249778
vt 0.416884 0.249778
vt 0.412117 0.022982
vt 0.770459 0.357551
vt 0.690134 0.311176
vt 0.643758 0.230851
vt 0.643758 0.138100
vt 0.690134 0.057775
vt 0.770459 0.011399
vt 0.863210 0.011399
vt 0.989910 0.230851
vt 0.943535 0.311176
vt 0.863210 0.357551
vt 0.943535 0.057775
vt 0.989910 0.138100
vt 0.077068 0.847660
vt 0.077068 0.985245
vt 0.059517 0.985245
vt 0.059518 0.847660
vt 0.128492 0.911876
vt 0.128492 0.929426
vt 0.098532 0.899466
vt 0.116082 0.899466
vt 0.116082 0.941836
vt 0.086122 0.911876
vt 0.086122 0.929426
vt 0.098532 0.941836
vt 0.937262 0.737461
vt 0.859010 0.777175
vt 0.836801 0.687859
vt 0.887248 0.676830
vt 0.638518 0.670522
vt 0.619359 0.584886
vt 0.697956 0.584886
vt 0.709622 0.637030
vt 0.638517 0.499250
vt 0.709622 0.532742
vt 0.692341 0.429942
vt 0.750539 0.501241
vt 0.771262 0.391575
vt 0.791386 0.481383
vt 0.859010 0.392597
vt 0.836801 0.481912
vt 0.937262 0.432310
vt 0.887248 0.492941
vt 0.991131 0.501582
vt 0.920049 0.535121
vt 0.771263 0.778196
vt 0.692342 0.739830
vt 0.750539 0.668531
vt 0.791386 0.688388
vt 0.991131 0.668189
vt 0.920049 0.634650
vt 0.012944 0.641241
vt 0.012944 0.562045
vt 0.034015 0.562045
vt 0.036919 0.641241
vt 0.012944 0.398148
vt 0.012944 0.318952
vt 0.036460 0.318952
vt 0.036314 0.398148
vt 0.012944 0.480096
vt 0.033623 0.480096
vt 0.643393 0.281271
vt 0.682262 0.348595
vt 0.657708 0.356039
vt 0.624669 0.298813
vt 0.500544 0.515890
vt 0.427389 0.498780
vt 0.444138 0.479344
vt 0.506320 0.493887
vt 0.626522 0.482554
vt 0.569296 0.515593
vt 0.562487 0.493887
vt 0.611129 0.465804
vt 0.386875 0.347581
vt 0.441674 0.296186
vt 0.457678 0.312353
vt 0.411099 0.356039
vt 0.568263 0.262267
vt 0.641418 0.279377
vt 0.562487 0.284270
vt 0.567443 0.516090
vt 0.501364 0.516090
vt 0.681932 0.430576
vt 0.627133 0.481971
vt 0.657708 0.422118
vt 0.386112 0.427948
vt 0.386113 0.350209
vt 0.411099 0.422118
vt 0.501364 0.262067
vt 0.567443 0.262067
vt 0.506320 0.284270
vt 0.682695 0.350209
vt 0.682695 0.427949
vt 0.425415 0.496886
vt 0.386545 0.429562
vt 0.442285 0.295603
vt 0.499511 0.262564
vt 0.106812 0.249296
vt 0.106812 0.214468
vt 0.181258 0.179640
vt 0.181258 0.249296
vt 0.032365 0.179640
vt 0.032365 0.249296
vt 0.106811 0.710897
vt 0.106811 0.745725
vt 0.032365 0.780553
vt 0.032365 0.710897
vt 0.012944 0.710897
vt 0.012944 0.780553
vt 0.012944 0.859750
vt 0.032365 0.859750
vt 0.012944 0.249296
vt 0.012944 0.179640
vt 0.375467 0.249296
vt 0.375467 0.179640
vt 0.375467 0.100443
vt 0.233047 0.100443
vt 0.195764 0.480097
vt 0.203668 0.398148
vt 0.375467 0.398148
vt 0.375467 0.480097
vt 0.194583 0.562045
vt 0.375467 0.562045
vt 0.198489 0.641241
vt 0.375467 0.641241
vt 0.194006 0.318952
vt 0.375467 0.318952
vt 0.103260 0.318952
vt 0.106095 0.398148
vt 0.098928 0.480096
vt 0.105980 0.562045
vt 0.105744 0.641241
vt 0.375467 0.710897
vt 0.181258 0.710897
vt 0.927228 0.938890
vt 0.866222 0.947670
vt 0.870079 0.861354
vt 0.934135 0.881122
vt 0.181258 0.780553
vt 0.012944 0.941698
vt 0.032365 0.941698
vt 0.012944 0.100443
vt 0.012944 0.018495
vt 0.032365 0.018495
vt 0.032365 0.100443
vt 0.375467 0.018495
vt 0.258942 0.018495
vt 0.375466 0.941698
vt 0.258941 0.941698
vt 0.233047 0.859750
vt 0.375466 0.859750
vt 0.375466 0.780553
vt 0.933026 0.928524
vt 0.867981 0.944745
vt 0.868104 0.862970
vt 0.929311 0.870214
vt 0.810319 0.859489
vt 0.809775 0.946269
vt 0.751591 0.944016
vt 0.752513 0.862509
vt 0.698088 0.927126
vt 0.703460 0.869295
vt 0.812024 0.856884
vt 0.808415 0.950768
vt 0.750988 0.943504
vt 0.753798 0.856884
vt 0.703209 0.930488
vt 0.699783 0.872060
vt 0.672963 0.874789
vt 0.677372 0.816902
vt 0.952608 0.816902
vt 0.964757 0.876562
vn 0.965900 0.000000 0.258800
vn 0.965900 0.000000 -0.258800
vn 0.472000 0.000000 -0.881600
vn 0.472000 0.000000 0.881600
vn -1.000000 0.000000 0.000000
vn -0.621100 0.782900 0.036800
vn -0.621900 0.782200 -0.035600
vn -0.008400 -0.999900 -0.007100
vn -0.008200 -0.999900 0.006900
vn 1.000000 0.000000 0.000000
vn 0.000000 -1.000000 0.000000
vn 0.000000 1.000000 0.000000
vn 0.000000 0.000000 -1.000000
vn 0.000000 0.000000 1.000000
vn 0.258000 0.078400 -0.962900
vn 0.704900 0.078400 -0.704900
vn 0.962900 0.078400 -0.258000
vn 0.962900 0.078400 0.258000
vn 0.704900 0.078400 0.704900
vn 0.258000 0.078400 0.962900
vn -0.258000 0.078400 0.962900
vn -0.704900 0.078400 0.704900
vn -0.962900 0.078400 0.258000
vn -0.962900 0.078400 -0.258000
vn -0.258000 0.078400 -0.962900
vn -0.704900 0.078400 -0.704900
vn 0.382700 0.923900 0.000000
vn 0.923900 0.382700 0.000000
vn 0.923900 -0.382700 0.000000
vn 0.382700 -0.923900 0.000000
vn -0.382700 -0.923900 0.000000
vn -0.923900 -0.382700 0.000000
vn -0.382700 0.923900 0.000000
vn -0.923900 0.382700 0.000000
vn 0.319000 0.860600 -0.397100
vn -0.531600 0.835000 -0.142400
vn -0.531600 0.835000 0.142400
vn -0.319000 0.860600 0.397100
vn -0.122000 0.882000 0.455200
vn 0.122000 0.882000 0.455200
vn 0.319000 0.860600 0.397100
vn 0.531600 0.835000 0.142400
vn -0.122000 0.882000 -0.455200
vn 0.122000 0.882000 -0.455200
vn 0.531600 0.835000 -0.142400
vn -0.319000 0.860600 -0.397100
vn -0.472000 0.000000 -0.881600
vn -0.472000 0.000000 0.881600
vn -0.965900 0.000000 0.258800
vn -0.965900 0.000000 -0.258800
vn 0.474800 0.870800 0.127200
vn -0.254900 0.841600 -0.476200
vn 0.143200 0.833000 -0.534300
vn -0.254900 0.841600 0.476200
vn 0.254900 0.841600 0.476200
vn -0.143200 0.833000 -0.534300
vn 0.254900 0.841600 -0.476200
vn -0.474800 0.870800 0.127200
vn 0.143200 0.833000 0.534300
vn 0.474800 0.870800 -0.127200
vn -0.474800 0.870800 -0.127200
vn -0.143200 0.833000 0.534300
vn 0.258800 0.000000 0.965900
vn 0.258800 -0.000000 -0.965900
vn -0.258800 0.000000 -0.965900
vn -0.258800 0.000000 0.965900
vn 0.570300 -0.811200 0.129300
vn 0.565200 -0.814300 -0.132300
vn 0.892900 -0.416000 -0.172200
vn 0.893000 0.415600 -0.172500
vn 0.896400 -0.412900 0.161200
vn 0.896300 0.413200 0.160900
vn 0.509400 -0.860500 0.000000
usemtl mrfusionm
s off
f 9/1/1 10/2/1 5/3/1 4/4/1
f 8/5/2 3/6/2 5/3/2 10/2/2
f 7/7/3 2/8/3 3/6/3 8/5/3
f 6/9/4 9/1/4 4/4/4 1/10/4
f 11/11/5 12/12/5 2/9/5 7/13/5
f 6/14/5 1/15/5 12/12/5 11/11/5
f 5/16/6 12/17/6 1/18/6 4/19/6
f 3/20/7 2/21/7 12/17/7 5/16/7
f 10/22/8 9/23/8 6/24/8 11/17/8
f 8/25/9 10/22/9 11/17/9 7/26/9
f 20/27/10 18/28/10 17/29/10 19/30/10
f 13/31/11 15/32/11 19/33/11 17/34/11
f 18/35/12 20/36/12 16/37/12 14/38/12
f 14/39/5 16/40/5 22/41/5 21/42/5
f 21/43/11 22/44/11 24/45/11 23/46/11
f 23/47/5 24/48/5 26/49/5 25/50/5
f 25/51/12 26/52/12 28/53/12 27/54/12
f 15/55/5 13/56/5 27/57/5 28/58/5
f 20/59/13 24/60/13 22/61/13 16/62/13
f 15/63/13 28/64/13 26/65/13 19/66/13
f 19/67/13 26/68/13 24/69/13 20/70/13
f 17/71/14 25/72/14 27/73/14 13/61/14
f 18/74/14 23/69/14 25/68/14 17/75/14
f 14/62/14 21/76/14 23/77/14 18/59/14
f 29/78/15 30/79/15 32/80/15 31/81/15
f 31/78/16 32/79/16 34/80/16 33/81/16
f 33/78/17 34/79/17 36/80/17 35/81/17
f 35/78/18 36/79/18 38/80/18 37/81/18
f 37/78/19 38/79/19 40/80/19 39/81/19
f 39/78/20 40/79/20 42/80/20 41/81/20
f 41/78/21 42/79/21 44/80/21 43/81/21
f 43/78/22 44/79/22 46/80/22 45/81/22
f 45/78/23 46/79/23 48/80/23 47/81/23
f 47/78/24 48/79/24 50/80/24 49/81/24
f 41/82/11 43/83/11 45/84/11 47/85/11
f 51/78/25 52/79/25 30/80/25 29/81/25
f 49/78/26 50/79/26 52/80/26 51/81/26
f 47/85/11 49/86/11 51/87/11 29/88/11
f 35/89/11 37/90/11 39/91/11 41/82/11
f 29/88/11 31/92/11 33/93/11 35/89/11
f 41/82/11 47/85/11 29/88/11 35/89/11
f 53/94/27 54/95/27 56/96/27 55/97/27
f 55/94/28 56/95/28 58/96/28 57/97/28
f 57/94/29 58/95/29 60/96/29 59/97/29
f 59/94/30 60/95/30 62/96/30 61/97/30
f 61/94/31 62/95/31 64/96/31 63/97/31
f 63/94/32 64/95/32 66/96/32 65/97/32
f 58/98/14 56/99/14 62/100/14 60/101/14
f 67/94/33 68/95/33 54/96/33 53/97/33
f 65/94/34 66/95/34 68/96/34 67/97/34
f 56/99/14 54/102/14 64/103/14 62/100/14
f 66/104/14 64/103/14 54/102/14 68/105/14
f 53/101/13 55/98/13 57/99/13 59/102/13
f 59/102/13 61/105/13 67/100/13 53/101/13
f 61/105/13 63/104/13 65/103/13 67/100/13
f 71/106/35 70/107/35 82/108/35 83/109/35
f 79/110/36 78/111/36 90/112/36 91/113/36
f 78/111/37 77/114/37 89/115/37 90/112/37
f 77/114/38 76/116/38 88/117/38 89/115/38
f 76/116/39 75/118/39 87/119/39 88/117/39
f 75/118/40 74/120/40 86/121/40 87/119/40
f 74/120/41 73/122/41 85/123/41 86/121/41
f 73/122/42 72/124/42 84/125/42 85/123/42
f 69/126/43 80/127/43 92/128/43 81/129/43
f 70/107/44 69/126/44 81/129/44 82/108/44
f 72/130/45 71/106/45 83/109/45 84/131/45
f 80/127/46 79/110/46 91/113/46 92/128/46
f 92/132/47 91/133/47 134/134/47 132/135/47
f 89/136/48 88/137/48 131/138/48 130/139/48
f 90/140/49 89/136/49 130/139/49 133/141/49
f 91/133/50 90/140/50 133/141/50 134/134/50
f 97/142/51 96/143/51 108/144/51 109/145/51
f 104/146/52 103/147/52 115/148/52 116/149/52
f 94/150/53 93/151/53 105/152/53 106/153/53
f 101/154/54 100/155/54 112/156/54 113/157/54
f 98/158/55 97/159/55 109/145/55 110/160/55
f 93/161/56 104/162/56 116/149/56 105/152/56
f 95/163/57 94/164/57 106/153/57 107/165/57
f 102/166/58 101/167/58 113/157/58 114/168/58
f 99/169/59 98/170/59 110/160/59 111/171/59
f 96/172/60 95/173/60 107/165/60 108/144/60
f 103/174/61 102/175/61 114/168/61 115/148/61
f 100/176/62 99/177/62 111/171/62 112/156/62
f 109/145/12 108/144/12 111/171/12 110/160/12
f 112/156/12 111/171/12 114/168/12 113/157/12
f 115/148/12 114/168/12 105/152/12 116/149/12
f 106/153/12 105/152/12 108/144/12 107/165/12
f 105/152/12 114/168/12 111/171/12 108/144/12
f 128/178/63 129/179/63 117/180/63 124/181/63
f 121/182/63 129/179/63 128/178/63 125/183/63
f 126/184/64 127/185/64 119/186/64 123/187/64
f 81/188/64 123/187/64 119/186/64 82/189/64
f 83/190/3 82/189/3 119/186/3 120/191/3
f 87/192/63 86/193/63 121/182/63 125/183/63
f 99/194/63 124/181/63 117/180/63 98/195/63
f 97/196/4 98/195/4 117/180/4 118/197/4
f 140/198/49 142/199/49 101/200/49 102/201/49
f 143/202/50 140/198/50 102/201/50 103/203/50
f 144/204/47 143/202/47 103/203/47 104/205/47
f 142/199/48 141/206/48 100/207/48 101/200/48
f 130/139/48 131/138/48 136/208/48 137/209/48
f 133/141/49 130/139/49 137/209/49 138/210/49
f 134/134/50 133/141/50 138/210/50 139/211/50
f 132/135/47 134/134/47 139/211/47 135/212/47
f 137/209/48 136/208/48 141/206/48 142/199/48
f 138/210/49 137/209/49 142/199/49 140/198/49
f 139/211/50 138/210/50 140/198/50 143/202/50
f 135/212/47 139/211/47 143/202/47 144/204/47
f 104/205/65 93/213/65 122/214/65 144/204/65
f 126/184/65 135/212/65 144/204/65 122/214/65
f 123/187/65 132/135/65 135/212/65 126/184/65
f 92/132/65 132/135/65 123/187/65 81/188/65
f 100/207/66 141/206/66 124/181/66 99/194/66
f 124/181/66 141/206/66 136/208/66 128/178/66
f 128/178/66 136/208/66 131/138/66 125/183/66
f 88/137/66 87/192/66 125/183/66 131/138/66
f 152/215/67 153/216/67 145/217/67 146/218/67
f 126/184/64 122/214/64 145/219/64 127/185/64
f 84/220/2 83/190/2 120/191/2 148/221/2
f 85/222/1 84/223/1 148/224/1 149/225/1
f 86/193/4 85/222/4 149/225/4 121/182/4
f 96/226/1 97/196/1 118/197/1 147/227/1
f 96/228/2 147/229/2 146/230/2 95/231/2
f 95/231/3 146/230/3 145/219/3 94/232/3
f 93/213/64 94/232/64 145/219/64 122/214/64
f 118/233/68 117/234/68 153/235/68 152/236/68
f 151/237/69 153/235/69 117/234/69 129/238/69
f 129/238/70 121/239/70 150/240/70 151/237/70
f 150/240/12 121/239/12 149/241/12 154/242/12
f 127/243/71 145/217/71 153/216/71 151/244/71
f 151/244/72 150/245/72 119/246/72 127/243/72
f 119/246/12 150/245/12 154/247/12 120/248/12
f 148/249/12 120/250/12 154/242/12 149/241/12
f 118/233/73 152/236/73 146/251/73 147/252/73
