# Blender v2.76 (sub 0) OBJ File: 'ltr.blend'
# www.blender.org
mtllib rod-upring.mtl
o upring_Torus.001
v 0.489656 2.000000 -0.202822
v 0.351074 2.086602 -0.145420
v 0.351074 1.913397 -0.145420
v 0.202822 2.000000 -0.489656
v 0.145420 2.086602 -0.351074
v 0.145420 1.913397 -0.351074
v -0.202822 2.000000 -0.489656
v -0.145420 2.086602 -0.351074
v -0.145420 1.913397 -0.351074
v -0.489656 2.000000 -0.202822
v -0.351074 2.086602 -0.145420
v -0.351074 1.913397 -0.145420
v -0.489656 2.000000 0.202822
v -0.351074 2.086602 0.145420
v -0.351074 1.913397 0.145420
v -0.202822 2.000000 0.489656
v -0.145420 2.086602 0.351074
v -0.145420 1.913397 0.351074
v 0.202822 2.000000 0.489656
v 0.145420 2.086602 0.351074
v 0.145420 1.913397 0.351074
v 0.489656 2.000000 0.202822
v 0.351074 2.086602 0.145420
v 0.351074 1.913397 0.145420
vt 0.769431 0.263989
vt 0.769431 0.010314
vt 0.871625 0.046212
vt 0.871625 0.228091
vt 0.558921 0.228092
vt 0.558921 0.046212
vt 0.667236 0.046212
vt 0.667237 0.228092
vt 0.538292 0.445842
vt 0.284617 0.445842
vt 0.320515 0.343648
vt 0.502395 0.343648
vt 0.502395 0.656353
vt 0.320515 0.656353
vt 0.320515 0.548037
vt 0.502395 0.548037
vt 0.538292 0.112509
vt 0.284617 0.112509
vt 0.320515 0.010314
vt 0.502395 0.010314
vt 0.502395 0.323019
vt 0.320515 0.323019
vt 0.320515 0.214703
vt 0.502395 0.214703
vt 0.263989 0.779175
vt 0.010314 0.779175
vt 0.046212 0.676981
vt 0.228091 0.676981
vt 0.228091 0.989686
vt 0.046212 0.989686
vt 0.046212 0.881370
vt 0.228091 0.881370
vt 0.812595 0.445842
vt 0.558920 0.445842
vt 0.594818 0.343648
vt 0.776698 0.343648
vt 0.776698 0.656352
vt 0.594818 0.656352
vt 0.594818 0.548037
vt 0.776698 0.548037
vt 0.010314 0.554158
vt 0.263989 0.554158
vt 0.228092 0.656352
vt 0.046211 0.656352
vt 0.046212 0.343648
vt 0.228092 0.343648
vt 0.228092 0.451963
vt 0.046212 0.451963
vt 0.495128 0.930655
vt 0.495128 0.676981
vt 0.597322 0.712878
vt 0.597322 0.894758
vt 0.284617 0.894758
vt 0.284617 0.712878
vt 0.392933 0.712878
vt 0.392933 0.894758
vt 0.010314 0.220825
vt 0.263989 0.220825
vt 0.228092 0.323019
vt 0.046212 0.323019
vt 0.046212 0.010314
vt 0.228092 0.010314
vt 0.228092 0.118630
vt 0.046212 0.118630
vn 0.374700 0.848000 -0.374700
vn -0.707100 0.000000 0.707100
vn 0.374700 -0.848000 -0.374700
vn 0.000000 0.848000 -0.529900
vn 0.000000 0.000000 1.000000
vn -0.000000 -0.848000 -0.529900
vn -0.374700 0.848000 -0.374700
vn 0.707100 0.000000 0.707100
vn -0.374700 -0.848000 -0.374700
vn -0.529900 0.848000 0.000000
vn 1.000000 0.000000 -0.000000
vn -0.529900 -0.848000 0.000000
vn -0.374700 0.848000 0.374700
vn 0.707100 0.000000 -0.707100
vn -0.374700 -0.848000 0.374700
vn -0.000000 0.848000 0.529900
vn 0.000000 0.000000 -1.000000
vn -0.000000 -0.848000 0.530000
vn 0.374700 0.848000 0.374700
vn -0.707100 0.000000 -0.707100
vn 0.374700 -0.848000 0.374700
vn 0.529900 0.848000 0.000000
vn -1.000000 0.000000 -0.000000
vn 0.529900 -0.848000 0.000000
usemtl rod-upring
s off
f 1/1/1 4/2/1 5/3/1 2/4/1
f 2/5/2 5/6/2 6/7/2 3/8/2
f 1/1/3 3/8/3 6/7/3 4/2/3
f 4/9/4 7/10/4 8/11/4 5/12/4
f 5/13/5 8/14/5 9/15/5 6/16/5
f 6/16/6 9/15/6 7/10/6 4/9/6
f 7/17/7 10/18/7 11/19/7 8/20/7
f 8/21/8 11/22/8 12/23/8 9/24/8
f 9/24/9 12/23/9 10/18/9 7/17/9
f 10/25/10 13/26/10 14/27/10 11/28/10
f 11/29/11 14/30/11 15/31/11 12/32/11
f 12/32/12 15/31/12 13/26/12 10/25/12
f 13/33/13 16/34/13 17/35/13 14/36/13
f 14/37/14 17/38/14 18/39/14 15/40/14
f 15/40/15 18/39/15 16/34/15 13/33/15
f 16/41/16 19/42/16 20/43/16 17/44/16
f 17/45/17 20/46/17 21/47/17 18/48/17
f 18/48/18 21/47/18 19/42/18 16/41/18
f 19/49/19 22/50/19 23/51/19 20/52/19
f 20/53/20 23/54/20 24/55/20 21/56/20
f 21/56/21 24/55/21 22/50/21 19/49/21
f 22/57/22 1/58/22 2/59/22 23/60/22
f 23/61/23 2/62/23 3/63/23 24/64/23
f 24/64/24 3/63/24 1/58/24 22/57/24
