# Blender v2.76 (sub 0) OBJ File: 'ltr.blend'
# www.blender.org
mtllib rod-downring.mtl
o downring_Torus
v 1.062461 0.800000 -0.440086
v 0.854589 0.929904 -0.353982
v 0.854589 0.670096 -0.353982
v 0.440086 0.800000 -1.062461
v 0.353982 0.929904 -0.854589
v 0.353982 0.670096 -0.854589
v -0.440086 0.800000 -1.062461
v -0.353982 0.929904 -0.854589
v -0.353982 0.670096 -0.854589
v -1.062462 0.800000 -0.440086
v -0.854589 0.929904 -0.353982
v -0.854589 0.670096 -0.353982
v -1.062461 0.800000 0.440086
v -0.854589 0.929904 0.353982
v -0.854589 0.670096 0.353982
v -0.440086 0.800000 1.062461
v -0.353982 0.929904 0.854589
v -0.353982 0.670096 0.854589
v 0.440086 0.800000 1.062461
v 0.353982 0.929904 0.854589
v 0.353982 0.670096 0.854589
v 1.062461 0.800000 0.440086
v 0.854589 0.929904 0.353983
v 0.854589 0.670096 0.353983
vt 0.859936 0.499452
vt 0.754247 0.753724
vt 0.697991 0.697109
vt 0.779905 0.499263
vt 0.995466 0.584957
vt 0.910456 0.789481
vt 0.835400 0.758284
vt 0.920411 0.553760
vt 0.500040 0.858874
vt 0.500232 0.779095
vt 0.789701 0.909843
vt 0.585230 0.994420
vt 0.554192 0.919384
vt 0.758663 0.834807
vt 0.245820 0.753761
vt 0.302346 0.697413
vt 0.414870 0.994431
vt 0.210388 0.909884
vt 0.241415 0.834843
vt 0.445897 0.919391
vt 0.140065 0.499528
vt 0.220097 0.499718
vt 0.089627 0.789559
vt 0.004563 0.585067
vt 0.079607 0.553851
vt 0.164671 0.758343
vt 0.245751 0.245255
vt 0.302012 0.301871
vt 0.004534 0.414023
vt 0.089542 0.209500
vt 0.164598 0.240696
vt 0.079590 0.445220
vt 0.499964 0.140080
vt 0.499770 0.219858
vt 0.210284 0.089131
vt 0.414759 0.004534
vt 0.445804 0.079572
vt 0.241329 0.164169
vt 0.754170 0.245226
vt 0.697640 0.301574
vt 0.585151 0.004534
vt 0.789621 0.089108
vt 0.758584 0.164144
vt 0.554114 0.079571
vt 0.910359 0.209420
vt 0.995432 0.413907
vt 0.920390 0.445127
vt 0.835317 0.240640
vn 0.374700 0.848000 -0.374700
vn -0.707100 0.000000 0.707100
vn 0.374700 -0.848000 -0.374700
vn -0.000000 0.848000 -0.530000
vn 0.000000 0.000000 1.000000
vn -0.000000 -0.848000 -0.529900
vn -0.374700 0.848000 -0.374700
vn 0.707100 0.000000 0.707100
vn -0.374700 -0.848000 -0.374700
vn -0.530000 0.848000 0.000000
vn 1.000000 0.000000 -0.000000
vn -0.530000 -0.848000 0.000000
vn -0.374700 0.848000 0.374700
vn 0.707100 0.000000 -0.707100
vn -0.374700 -0.848000 0.374700
vn -0.000000 0.848000 0.530000
vn 0.000000 0.000000 -1.000000
vn -0.000000 -0.848000 0.530000
vn 0.374700 0.848000 0.374700
vn -0.707100 0.000000 -0.707100
vn 0.374700 -0.848000 0.374700
vn 0.530000 0.848000 -0.000000
vn -1.000000 0.000000 -0.000000
vn 0.530000 -0.848000 0.000000
usemtl rod-downring
s off
f 1/1/1 4/2/1 5/3/1 2/4/1
f 2/5/2 5/6/2 6/7/2 3/8/2
f 1/1/3 3/8/3 6/7/3 4/2/3
f 4/2/4 7/9/4 8/10/4 5/3/4
f 5/11/5 8/12/5 9/13/5 6/14/5
f 6/14/6 9/13/6 7/9/6 4/2/6
f 7/9/7 10/15/7 11/16/7 8/10/7
f 8/17/8 11/18/8 12/19/8 9/20/8
f 9/20/9 12/19/9 10/15/9 7/9/9
f 10/15/10 13/21/10 14/22/10 11/16/10
f 11/23/11 14/24/11 15/25/11 12/26/11
f 12/26/12 15/25/12 13/21/12 10/15/12
f 13/21/13 16/27/13 17/28/13 14/22/13
f 14/29/14 17/30/14 18/31/14 15/32/14
f 15/32/15 18/31/15 16/27/15 13/21/15
f 16/27/16 19/33/16 20/34/16 17/28/16
f 17/35/17 20/36/17 21/37/17 18/38/17
f 18/38/18 21/37/18 19/33/18 16/27/18
f 19/33/19 22/39/19 23/40/19 20/34/19
f 20/41/20 23/42/20 24/43/20 21/44/20
f 21/44/21 24/43/21 22/39/21 19/33/21
f 22/39/22 1/1/22 2/4/22 23/40/22
f 23/45/23 2/46/23 3/47/23 24/48/23
f 24/48/24 3/47/24 1/1/24 22/39/24
