# Blender v2.76 (sub 0) OBJ File: 'vibraniumshield.blend'
# www.blender.org
mtllib shield-handles.mtl
o Torus
v 0.908739 0.099554 0.310000
v 0.939779 0.095743 0.325060
v 0.947446 0.094801 0.358901
v 0.917355 0.100000 0.386039
v 0.882645 0.100000 0.386039
v 0.870033 0.104306 0.358901
v 0.877699 0.103365 0.325060
v 0.910336 0.100000 0.690000
v 0.939779 0.095743 0.674940
v 0.947446 0.094801 0.641099
v 0.925965 0.097439 0.613961
v 0.891513 0.101669 0.613961
v 0.870033 0.104307 0.641099
v 0.877699 0.103365 0.674940
v 0.888686 -0.063764 0.595000
v 0.921316 -0.054630 0.587470
v 0.932554 -0.026483 0.570550
v 0.913937 -0.000519 0.556981
v 0.879485 0.003711 0.556981
v 0.855141 -0.016978 0.570550
v 0.859236 -0.047008 0.587470
v 0.888686 -0.063764 0.405000
v 0.921316 -0.054630 0.412530
v 0.932554 -0.026483 0.429450
v 0.913937 -0.000519 0.443019
v 0.882645 0.001307 0.443019
v 0.855141 -0.016978 0.429450
v 0.859235 -0.047008 0.412530
v 0.092084 0.099516 0.310000
v 0.123124 0.103327 0.325060
v 0.130791 0.104268 0.358901
v 0.109310 0.101631 0.386039
v 0.074858 0.097401 0.386039
v 0.053378 0.094763 0.358901
v 0.061044 0.095705 0.325060
v 0.092084 0.099516 0.690000
v 0.123124 0.103327 0.674940
v 0.130791 0.104268 0.641099
v 0.109310 0.101631 0.613961
v 0.074858 0.097401 0.613961
v 0.053378 0.094763 0.641099
v 0.061044 0.095705 0.674940
v 0.112137 -0.063802 0.595000
v 0.141588 -0.047046 0.587470
v 0.145683 -0.017016 0.570550
v 0.121338 0.003673 0.556981
v 0.086886 -0.000557 0.556981
v 0.068270 -0.026521 0.570550
v 0.079508 -0.054668 0.587470
v 0.112137 -0.063802 0.405000
v 0.141588 -0.047046 0.412530
v 0.145683 -0.017016 0.429450
v 0.121338 0.003673 0.443019
v 0.086886 -0.000557 0.443019
v 0.068270 -0.026521 0.429450
v 0.079508 -0.054668 0.412530
vt 0.294652 0.346544
vt 0.021536 0.348743
vt 0.032329 0.300177
vt 0.283067 0.300177
vt 0.056580 0.256738
vt 0.258816 0.256738
vt 0.076028 0.210946
vt 0.239368 0.210946
vt 0.076028 0.161196
vt 0.239368 0.161196
vt 0.056580 0.115404
vt 0.258816 0.115404
vt 0.032329 0.071965
vt 0.283067 0.071965
vt 0.021536 0.023400
vt 0.294654 0.021536
vt 0.021536 0.391814
vt 0.293851 0.394079
vt 0.282654 0.442553
vt 0.031924 0.440468
vt 0.258042 0.485789
vt 0.055814 0.484107
vt 0.238214 0.531417
vt 0.074881 0.530059
vt 0.237840 0.576343
vt 0.074439 0.579807
vt 0.257741 0.623492
vt 0.055519 0.625820
vt 0.282491 0.666650
vt 0.031769 0.669535
vt 0.293842 0.715088
vt 0.021536 0.718222
vt 0.337725 0.022829
vt 0.610047 0.021536
vt 0.599485 0.070152
vt 0.348749 0.071343
vt 0.575440 0.113706
vt 0.373206 0.114666
vt 0.558292 0.169692
vt 0.392872 0.160365
vt 0.554029 0.219259
vt 0.391291 0.205265
vt 0.576339 0.256408
vt 0.374125 0.253477
vt 0.599959 0.300195
vt 0.349247 0.296560
vt 0.610047 0.348911
vt 0.337751 0.344964
vt 0.925442 0.346879
vt 0.653118 0.346879
vt 0.663911 0.298313
vt 0.914650 0.298313
vt 0.688162 0.254874
vt 0.890398 0.254874
vt 0.707611 0.209082
vt 0.870950 0.209082
vt 0.707611 0.159332
vt 0.870950 0.159332
vt 0.688162 0.113540
vt 0.890398 0.113540
vt 0.663911 0.070101
vt 0.914649 0.070101
vt 0.653118 0.021536
vt 0.925442 0.021536
vt 0.706140 0.391983
vt 0.978464 0.391983
vt 0.967671 0.440548
vt 0.716933 0.440548
vt 0.943420 0.483987
vt 0.741184 0.483987
vt 0.923972 0.529779
vt 0.760633 0.529779
vt 0.923972 0.579529
vt 0.760633 0.579529
vt 0.943420 0.625321
vt 0.741184 0.625321
vt 0.967671 0.668760
vt 0.716933 0.668760
vt 0.978464 0.717326
vt 0.706140 0.717326
vt 0.663068 0.391983
vt 0.663069 0.664307
vt 0.614503 0.653514
vt 0.614503 0.402776
vt 0.571064 0.629263
vt 0.571064 0.427027
vt 0.525272 0.609815
vt 0.525272 0.446475
vt 0.475522 0.609815
vt 0.475522 0.446475
vt 0.429730 0.629263
vt 0.429730 0.427027
vt 0.386291 0.653514
vt 0.386291 0.402776
vt 0.337725 0.664307
vt 0.337725 0.391983
vn 0.329900 -0.505300 0.797400
vn 0.944200 -0.244300 0.220700
vn 0.771400 0.246500 -0.586600
vn 0.060900 0.496300 -0.866000
vn -0.688900 0.425800 -0.586600
vn -0.975300 -0.008600 0.220700
vn -0.426600 -0.412900 0.804700
vn 0.269600 -0.963000 -0.000000
vn 0.928700 -0.370800 -0.000000
vn 0.812700 0.582700 -0.000000
vn 0.091700 0.995700 -0.009200
vn -0.600800 0.799300 -0.015000
vn -0.990800 -0.135100 0.000000
vn -0.494500 -0.869200 -0.000000
vn 0.325800 -0.504900 -0.799300
vn 0.944200 -0.244300 -0.220700
vn 0.717600 0.301700 0.627700
vn 0.013700 0.496300 0.868000
vn -0.720200 0.383800 0.577900
vn -0.975300 -0.008600 -0.220700
vn -0.438300 -0.411100 -0.799300
vn 0.438300 -0.411100 0.799300
vn 0.975300 -0.008600 0.220700
vn 0.688900 0.425800 -0.586600
vn -0.060900 0.496300 -0.866000
vn -0.771400 0.246500 -0.586600
vn -0.944200 -0.244300 0.220700
vn -0.325800 -0.504900 0.799300
vn 0.494500 -0.869200 -0.000000
vn 0.990800 -0.135100 -0.000000
vn 0.647600 0.762000 -0.000000
vn -0.121900 0.992500 0.000000
vn -0.812700 0.582700 0.000000
vn -0.928700 -0.370800 0.000000
vn -0.269600 -0.963000 0.000000
vn 0.438300 -0.411100 -0.799300
vn 0.975300 -0.008600 -0.220700
vn 0.688900 0.425800 0.586600
vn -0.060900 0.496300 0.866000
vn -0.771400 0.246500 0.586600
vn -0.944200 -0.244300 -0.220700
vn -0.325800 -0.504900 -0.799300
usemtl shield-handles
s off
f 8/1/1 15/2/1 16/3/1 9/4/1
f 9/4/2 16/3/2 17/5/2 10/6/2
f 10/6/3 17/5/3 18/7/3 11/8/3
f 11/8/4 18/7/4 19/9/4 12/10/4
f 12/10/5 19/9/5 20/11/5 13/12/5
f 13/12/6 20/11/6 21/13/6 14/14/6
f 14/14/7 21/13/7 15/15/7 8/16/7
f 15/17/8 22/18/8 23/19/8 16/20/8
f 16/20/9 23/19/9 24/21/9 17/22/9
f 17/22/10 24/21/10 25/23/10 18/24/10
f 18/24/11 25/23/11 26/25/11 19/26/11
f 19/26/12 26/25/12 27/27/12 20/28/12
f 20/28/13 27/27/13 28/29/13 21/30/13
f 21/30/14 28/29/14 22/31/14 15/32/14
f 22/33/15 1/34/15 2/35/15 23/36/15
f 23/36/16 2/35/16 3/37/16 24/38/16
f 24/38/17 3/37/17 4/39/17 25/40/17
f 25/40/18 4/39/18 5/41/18 26/42/18
f 26/42/19 5/41/19 6/43/19 27/44/19
f 27/44/20 6/43/20 7/45/20 28/46/20
f 28/46/21 7/45/21 1/47/21 22/48/21
f 36/49/22 43/50/22 44/51/22 37/52/22
f 37/52/23 44/51/23 45/53/23 38/54/23
f 38/54/24 45/53/24 46/55/24 39/56/24
f 39/56/25 46/55/25 47/57/25 40/58/25
f 40/58/26 47/57/26 48/59/26 41/60/26
f 41/60/27 48/59/27 49/61/27 42/62/27
f 42/62/28 49/61/28 43/63/28 36/64/28
f 43/65/29 50/66/29 51/67/29 44/68/29
f 44/68/30 51/67/30 52/69/30 45/70/30
f 45/70/31 52/69/31 53/71/31 46/72/31
f 46/72/32 53/71/32 54/73/32 47/74/32
f 47/74/33 54/73/33 55/75/33 48/76/33
f 48/76/34 55/75/34 56/77/34 49/78/34
f 49/78/35 56/77/35 50/79/35 43/80/35
f 50/81/36 29/82/36 30/83/36 51/84/36
f 51/84/37 30/83/37 31/85/37 52/86/37
f 52/86/38 31/85/38 32/87/38 53/88/38
f 53/88/39 32/87/39 33/89/39 54/90/39
f 54/90/40 33/89/40 34/91/40 55/92/40
f 55/92/41 34/91/41 35/93/41 56/94/41
f 56/94/42 35/93/42 29/95/42 50/96/42
