# Blender v2.76 (sub 0) OBJ File: 'soundemiter.blend'
# www.blender.org
mtllib soundemiter.mtl
o soundemiter_Cube.002
v 0.400000 0.710000 0.600000
v 0.600000 0.710000 0.600000
v 0.400000 0.710000 0.400000
v 0.600000 0.710000 0.400000
v 0.400000 0.760000 0.600000
v 0.600000 0.760000 0.600000
v 0.400000 0.760000 0.400000
v 0.600000 0.760000 0.400000
v 0.297172 0.950000 0.702828
v 0.702828 0.950000 0.702828
v 0.297172 0.950000 0.297172
v 0.702828 0.950000 0.297172
v 0.329374 0.950000 0.670626
v 0.670626 0.950000 0.670626
v 0.329374 0.950000 0.329374
v 0.670626 0.950000 0.329374
v 0.462469 0.800000 0.537531
v 0.537531 0.800000 0.537531
v 0.462469 0.800000 0.462469
v 0.537531 0.800000 0.462469
v 0.486801 0.950000 0.513199
v 0.513199 0.950000 0.513199
v 0.486801 0.950000 0.486801
v 0.513199 0.950000 0.486801
v 0.000000 0.750000 1.000000
v 0.000000 1.000000 1.000000
v 0.000000 0.750000 0.000000
v 0.000000 1.000000 0.000000
v 1.000000 0.750000 1.000000
v 1.000000 1.000000 1.000000
v 1.000000 0.750000 0.000000
v 1.000000 1.000000 0.000000
v 0.200000 1.000000 0.800000
v 0.800000 1.000000 0.800000
v 0.800000 1.000000 0.200000
v 0.200000 1.000000 0.200000
v 0.800000 0.750000 0.200000
v 0.200000 0.750000 0.200000
v 0.200000 0.750000 0.800000
v 0.800000 0.750000 0.800000
vt 0.718750 -0.000000
vt 0.906250 -0.000000
vt 0.906250 0.031250
vt 0.718750 0.031250
vt 1.000000 0.250000
vt 0.625000 0.250000
vt 1.000000 0.500000
vt 0.625000 0.500000
vt 0.656250 0.468750
vt 0.968750 0.468750
vt 0.781250 0.281250
vt 0.843750 0.281250
vt 0.468750 0.093750
vt 0.562500 0.093750
vt 0.531250 0.218750
vt 0.500000 0.218750
vt 0.500000 0.250000
vt 0.531250 0.250000
vt 0.500000 0.781250
vt 0.000000 0.781250
vt 0.000000 0.656250
vt 0.500000 0.656250
vt 0.312500 0.187500
vt 0.000000 0.187500
vt 0.000000 0.062500
vt 0.312500 0.062500
vt 0.000000 0.531250
vt 0.500000 0.531250
vt 0.406250 0.625000
vt 0.093750 0.625000
vt 0.312500 0.531250
vt 0.000000 0.218750
vt 0.312500 0.218750
vn 0.000000 0.000000 -1.000000
vn 0.000000 0.000000 1.000000
vn 1.000000 0.000000 0.000000
vn -1.000000 0.000000 0.000000
vn 0.000000 -0.476000 -0.879500
vn 0.000000 -0.476000 0.879500
vn 0.879500 -0.476000 0.000000
vn -0.879500 -0.476000 0.000000
vn 0.000000 1.000000 0.000000
vn 0.748000 0.663700 0.000000
vn 0.000000 0.663700 0.748000
vn 0.000000 0.663700 -0.748000
vn -0.748000 0.663700 0.000000
vn 0.000000 0.160100 -0.987100
vn 0.000000 0.160100 0.987100
vn 0.987100 0.160100 0.000000
vn -0.987100 0.160100 0.000000
usemtl soundemiterm
s off
f 4/1/1 3/2/1 7/3/1 8/4/1
f 1/1/2 2/2/2 6/3/2 5/4/2
f 2/1/3 4/2/3 8/3/3 6/4/3
f 3/1/4 1/2/4 5/3/4 7/4/4
f 8/4/5 7/3/5 11/5/5 12/6/5
f 5/4/6 6/3/6 10/5/6 9/6/6
f 6/4/7 8/3/7 12/5/7 10/6/7
f 7/4/8 5/3/8 9/5/8 11/6/8
f 10/7/9 12/8/9 16/9/9 14/10/9
f 11/7/9 9/8/9 13/9/9 15/10/9
f 12/7/9 11/8/9 15/9/9 16/10/9
f 9/7/9 10/8/9 14/9/9 13/10/9
f 15/10/10 13/9/10 17/11/10 19/12/10
f 16/10/11 15/9/11 19/11/11 20/12/11
f 13/10/12 14/9/12 18/11/12 17/12/12
f 14/10/13 16/9/13 20/11/13 18/12/13
f 20/13/14 19/14/14 23/15/14 24/16/14
f 17/13/15 18/14/15 22/15/15 21/16/15
f 18/13/16 20/14/16 24/15/16 22/16/16
f 19/13/17 17/14/17 21/15/17 23/16/17
f 23/17/9 21/16/9 22/15/9 24/18/9
f 26/19/4 28/20/4 27/21/4 25/22/4
f 28/19/1 32/20/1 31/21/1 27/22/1
f 32/19/3 30/20/3 29/21/3 31/22/3
f 30/19/2 26/20/2 25/21/2 29/22/2
f 35/23/2 36/24/2 38/25/2 37/26/2
f 33/25/1 34/26/1 40/23/1 39/24/1
f 33/24/3 39/25/3 38/26/3 36/23/3
f 34/25/4 35/26/4 37/23/4 40/24/4
f 28/27/9 26/28/9 33/29/9 36/30/9
f 28/28/9 36/29/9 35/30/9 32/27/9
f 32/28/9 35/29/9 34/30/9 30/27/9
f 30/28/9 34/29/9 33/30/9 26/27/9
f 37/31/9 38/27/9 39/32/9 40/33/9
